<svg id="Layer_1" enable-background="new 0 0 511.96 511.96" height="512" viewBox="0 0 511.96 511.96" width="512" xmlns="http://www.w3.org/2000/svg"><g><path d="m443.721 404.275h-375.482c-29.2 0-52.872-23.672-52.872-52.872v-237.749c0-54.485 44.169-98.654 98.654-98.654h283.918c54.485 0 98.654 44.169 98.654 98.654v237.749c0 29.201-23.671 52.872-52.872 52.872z" fill="#f0d5ad"/><path d="m486.226 404.275h-229.496v-380.181h160.545c38.081 0 68.951 30.871 68.951 68.951z" fill="#f2c07e"/><path d="m443.721 419.275h-82.475l-99.803-11.719-111.013 11.719h-82.191c-37.425 0-67.872-30.447-67.872-67.872v-237.749c0-62.669 50.985-113.654 113.654-113.654h283.918c62.669 0 113.654 50.985 113.654 113.654v237.749c0 37.425-30.447 67.872-67.872 67.872zm-329.7-389.275c-46.127 0-83.654 37.527-83.654 83.654v237.749c0 20.883 16.989 37.872 37.872 37.872h77.372l115.833 18.281 105.25-18.281h77.028c20.883 0 37.872-16.989 37.872-37.872v-237.749c0-46.127-37.527-83.654-83.654-83.654z" fill="#f70058"/><g><path d="m357.075 358.602h-202.19c-8.284 0-15-6.716-15-15v-162.223c0-8.284 6.716-15 15-15h202.189c8.284 0 15 6.716 15 15v162.223c.001 8.284-6.715 15-14.999 15zm-187.19-30h172.189v-132.223h-172.189z" fill="#ffb055"/></g><ellipse cx="101.026" cy="93.64" fill="#00495f" rx="15.149" ry="15.358"/><ellipse cx="405.951" cy="93.64" fill="#00313e" rx="15.149" ry="15.358"/><path d="m366.79 329.254c-7.923-2.418-16.306 2.048-18.723 9.973-.477 1.564-6.325 20.976-12.047 50.048h-36.502v-45.673c0-8.284-6.716-15-15-15s-15 6.716-15 15v45.673h-27.077v-45.673c0-8.284-6.716-15-15-15s-15 6.716-15 15v45.673h-36.289c-5.052-28.84-10.211-48.057-10.632-49.606-2.172-7.994-10.412-12.711-18.403-10.541-7.993 2.169-12.715 10.409-10.548 18.403.196.722 19.574 73.086 19.574 149.013 0 8.284 6.716 15 15 15s15-6.716 15-15c0-6.735-.143-13.423-.4-20.029h26.699v20.446c0 8.284 6.716 15 15 15s15-6.716 15-15v-20.446h27.077v20.446c0 8.284 6.716 15 15 15s15-6.716 15-15v-20.446h25.684c-.301 6.745-.468 13.572-.468 20.446 0 8.284 6.716 15 15 15s15-6.716 15-15c0-75.682 21.81-148.264 22.03-148.988 2.412-7.923-2.053-16.303-9.975-18.719zm-183 117.26c-.852-9.448-1.888-18.572-3.031-27.239h31.682v27.239zm58.651 0v-27.239h27.077v27.239zm57.078 0v-27.239h31.319c-1.288 8.671-2.457 17.795-3.419 27.239z" fill="#effafc"/><path d="m397.939 0h-141.209v30h141.208c46.127 0 83.654 37.527 83.654 83.654v237.749c0 20.883-16.989 37.872-37.872 37.872h-77.028l-5.447 30h82.475c37.425 0 67.872-30.447 67.872-67.872v-237.749c.001-62.669-50.984-113.654-113.653-113.654z" fill="#d4004e"/><path d="m357.075 166.379h-100.345v30h85.344v132.223h-85.344v30h100.344c8.284 0 15-6.716 15-15v-162.223c.001-8.284-6.715-15-14.999-15z" fill="#fc7a4c"/><path d="m366.79 329.254c-7.923-2.418-16.306 2.048-18.723 9.973-.477 1.564-6.325 20.976-12.047 50.048h-36.502v-45.673c0-8.284-6.716-15-15-15s-15 6.716-15 15v45.673h-12.788v30h12.788v27.239h-12.788v30h12.788v20.446c0 8.284 6.716 15 15 15s15-6.716 15-15v-20.446h25.684c-.301 6.745-.468 13.572-.468 20.446 0 8.284 6.716 15 15 15s15-6.716 15-15c0-75.682 21.81-148.264 22.03-148.988 2.413-7.922-2.052-16.302-9.974-18.718zm-39.372 117.26h-27.9v-27.239h31.319c-1.287 8.672-2.456 17.795-3.419 27.239z" fill="#d3f2fc"/><g><path d="m406.105 358.602h-300.251c-8.284 0-15-6.716-15-15s6.716-15 15-15h300.251c8.284 0 15 6.716 15 15s-6.715 15-15 15z" fill="#00637f"/></g><path d="m406.105 328.602h-149.375v30h149.375c8.284 0 15-6.716 15-15s-6.715-15-15-15z" fill="#00313e"/></g></svg>