<svg id="Layer_1" enable-background="new 0 0 511.855 511.855" height="512" viewBox="0 0 511.855 511.855" width="512" xmlns="http://www.w3.org/2000/svg"><g><path d="m255.556 502.738c-5.452 0-10.344 8.947-15.711 8.611-51.171-3.205-98.53-21.434-137.17-50.365-4.155-3.111-1.831-17.237-5.785-20.589-4.698-3.983-15.631 2.758-20.029-1.549-43.803-42.903-72.251-101.43-76.328-166.565-.336-5.367 14.314-10.779 14.314-16.231s-14.65-10.864-14.314-16.231c4.084-65.241 32.617-123.852 76.542-166.775 3.568-3.486 21.305 14.42 25.071 11.146 4.718-4.102-4.48-29.323.532-33.076 38.639-28.93 85.997-47.175 137.168-50.38 5.367-.336 10.511 22.323 15.963 22.323s10.864-22.668 16.232-22.332c49.425 3.096 95.045 20.233 132.918 47.468 4.47 3.215 1.238 28.235 5.486 31.724 4.491 3.689 16.449-14.136 20.677-10.154 45.86 43.193 75.776 103.354 79.965 170.273.336 5.367-24.39 10.562-24.39 16.013 0 5.452 24.722 10.864 24.386 16.231-4.198 67.061-34.229 127.118-80.254 170.331-4.073 3.824-11.394-5.994-15.71-2.441s-5.627 20.477-10.173 23.746c-37.871 27.23-83.221 44.338-132.64 47.433-5.369.337-11.298-8.611-16.75-8.611z" fill="#ffb055"/><path d="m511.086 240.036c-4.189-66.919-34.105-127.081-79.966-170.273-4.228-3.982-16.186 13.843-20.677 10.154-4.248-3.49-1.015-28.51-5.486-31.724-37.873-27.236-83.492-44.373-132.918-47.469-5.304-.332-10.652 21.787-16.039 22.308v479.75c5.329.457 11.082 8.895 16.304 8.568 49.42-3.095 94.77-20.203 132.64-47.433 4.546-3.269 5.857-20.193 10.173-23.746s11.638 6.264 15.71 2.441c46.026-43.213 76.056-103.27 80.254-170.331.336-5.367-24.386-10.779-24.386-16.231.001-5.452 24.727-10.647 24.391-16.014z" fill="#fc7a4c"/><path d="m400.507 185.049c8.551-55.188 23.744-97.461 30.87-115.287-8.227-7.748-16.964-14.957-26.16-21.571-3.974 8.898-25.356 58.998-36.62 130.823-3.204 20.428-5.276 40.729-6.23 60.794h-90.062v-239.075c-5.368-.337-10.776-.527-16.229-.527s-10.861.191-16.23.527v239.075h-93.4c-.222-12.931-.929-25.75-2.149-38.418-5.104-53.032-19.023-103.584-41.352-150.287-9.012 6.748-17.553 14.089-25.59 21.943 18.447 40.851 30.074 84.801 34.57 130.805 1.158 11.849 1.836 23.847 2.058 35.957h-113.456c-.336 5.369-.527 10.777-.527 16.23s.191 10.861.527 16.23h112.955c-.89 18.061-2.787 36.314-5.689 54.66-8.47 53.559-23.476 94.393-30.653 111.894 8.099 7.932 16.711 15.342 25.802 22.15 3.874-8.392 25.414-57.191 36.735-127.863 3.27-20.411 5.358-40.729 6.288-60.841h93.88v238.854c5.369.336 10.777.527 16.23.527s10.861-.191 16.229-.527v-238.854h89.498c.187 13.689.912 27.236 2.182 40.603 5.092 53.59 18.837 104.099 41.089 150.736 9.092-6.538 17.735-13.659 25.88-21.307-18.542-40.998-30.089-85.121-34.596-131.882-1.21-12.549-1.906-25.278-2.094-38.15l116.82.013c.336-5.368.773-10.789.773-16.242s-.447-10.861-.784-16.23h-116.21c.914-18.066 2.792-36.349 5.645-54.76z" fill="#fff5f5"/><path d="m394.862 239.808c.914-18.066 2.792-36.349 5.645-54.759 8.551-55.188 23.744-97.461 30.87-115.287-8.227-7.748-16.964-14.957-26.161-21.571-3.974 8.898-25.356 58.998-36.62 130.823-3.204 20.428-5.276 40.729-6.23 60.794h-90.062v-239.075c-5.368-.337-10.776-.527-16.229-.527-.025 0-.05 0-.075 0v511.442c.025 0 .05.001.075.001 5.453 0 10.861-.191 16.229-.527v-238.854h89.498c.187 13.689.912 27.236 2.182 40.603 5.092 53.59 18.837 104.099 41.089 150.736 9.092-6.538 17.735-13.659 25.88-21.307-18.542-40.998-30.089-85.121-34.596-131.882-1.21-12.549-1.906-25.278-2.094-38.15l116.82.013c.336-5.368.773-10.789.773-16.242s-.448-10.861-.784-16.23h-116.21z" fill="#e6fbff"/></g></svg>